<?xml version="1.0" encoding="utf-8"?>
<!-- Generator: Adobe Illustrator 22.1.0, SVG Export Plug-In . SVG Version: 6.00 Build 0)  -->
<svg version="1.1" id="Layer_1" xmlns="http://www.w3.org/2000/svg" xmlns:xlink="http://www.w3.org/1999/xlink" x="0px" y="0px"
	 viewBox="0 0 252.5 153.2" style="enable-background:new 0 0 252.5 153.2;" xml:space="preserve">
<style type="text/css">
	.st0{fill:#CF4647;stroke:#FFFFFF;stroke-miterlimit:10;}
</style>
<g>
	<path class="st0" d="M67.5,79.1c-0.2,0.3-0.5,1.1-0.9,2.4c-0.5,1.4-1,3.1-1.7,5.2c-0.7,2.1-1.4,4.4-2.1,7l-2.4,7.9
		c-0.9,2.7-1.6,5.3-2.4,7.9l-2,7l-1.5,5.2l-0.7,2.5c-0.3,0.8-0.6,1.8-1.1,2.8c-0.5,1-1.1,2-1.7,2.9c-0.7,0.9-1.4,1.7-2.2,2.3
		s-1.6,0.9-2.5,0.9c-1.4,0-2.4-0.5-3.1-1.4c-0.7-0.9-1-2.7-1-5.2v-2.3c0-0.8,0.4-2.4,1-4.7c0.6-2.3,1.3-4.9,2.2-7.8
		c0.8-2.9,1.8-5.9,2.7-9l2.7-8.4c-2.4,2.6-4.9,5.2-7.6,7.7c-2.7,2.6-5.5,4.9-8.3,6.9c-2.9,2-5.8,3.7-8.7,5s-5.7,1.9-8.4,1.9
		c-3.1,0-5.7-0.7-7.9-2.1s-4.1-3.1-5.5-5.3s-2.5-4.7-3.2-7.4c-0.4-2.6-0.8-5.4-0.8-8.1v-1c0-0.3,0-0.6,0.1-0.9
		c0.2-5,1-10.1,2.1-15.3C3.8,70.4,5.3,65.2,7.2,60s4.1-10.3,6.6-15.3c2.6-4.8,5.3-9.5,8.2-13.9s6-8.5,9.3-12.2
		c3.3-3.7,6.7-6.9,10.1-9.6c3.5-2.7,7-4.8,10.5-6.3c3.5-1.5,7-2.3,10.5-2.3c4,0,7.9,1.1,11.6,3.3c3.7,2.2,7.2,5.7,10.5,10.6
		c0.7,1.1,1.2,2.2,1.4,3.3c0.2,1.1,0.3,2.2,0.3,3.1c0,2.3-0.6,4.2-1.7,5.5c-1.1,1.4-2.4,2-4,2c-1.4,0-2.7-0.7-3.9-2.2
		c-1.2-1.5-2.6-3.6-4-6.3c-1.4-2.5-2.9-4.3-4.6-5.4s-3.5-1.6-5.5-1.6c-3.1,0-6.3,1.3-9.8,3.9s-6.9,5.9-10.3,10.1
		c-3.4,4.2-6.7,9-9.8,14.4s-5.9,10.9-8.3,16.6S20,69.1,18.6,74.6c-1.4,5.5-2.1,10.4-2.1,14.8c0,1.5,0.1,3,0.3,4.5
		c0.2,1.6,0.6,2.9,1.1,4.2s1.3,2.3,2.3,3.1c1,0.8,2.2,1.2,3.6,1.2c1.6,0,3.5-0.5,5.5-1.6c2.1-1.1,4.2-2.5,6.4-4.3s4.5-3.8,6.7-6
		s4.4-4.5,6.3-6.8c1.9-2.3,3.7-4.5,5.1-6.6c1.5-2.1,2.6-3.9,3.4-5.5L63,53c0.7-2,1.7-3.4,2.9-4.2c1.2-0.8,2.4-1.3,3.7-1.3
		c0.6,0,1.2,0.1,1.8,0.3c0.6,0.2,1.2,0.5,1.7,1c0.5,0.4,0.9,1,1.2,1.7c0.3,0.7,0.5,1.5,0.5,2.5c0,2.5-0.2,4.9-0.6,7
		c-0.4,2.2-1,4.3-1.7,6.4c-0.6,2.1-1.4,4.1-2.2,6.2c-0.8,2.1-1.6,4.3-2.4,6.6L67.5,79.1z M150.6,94.4c-1.9,2.6-4.2,5.1-6.7,7.6
		c-2.6,2.5-5.2,4.7-7.9,6.6s-5.4,3.5-8,4.6c-2.6,1.2-5,1.8-7.1,1.8s-3.8-0.7-5.2-2.1s-2-3.8-2-7.2c0-2.4,0.4-5.2,1.1-8.4
		c-1.1,2-2.6,4.1-4.3,6.1c-1.7,2.1-3.7,4-5.9,5.7c-2.2,1.7-4.7,3.1-7.4,4.1s-5.7,1.6-8.9,1.6c-1.4,0-2.8-0.2-4.2-0.6
		c-1.4-0.4-2.6-1-3.6-1.9s-1.8-2.1-2.5-3.6c-0.6-1.5-0.9-3.4-0.9-5.6l0.2-2.4c0.2-1.5,0.7-4,1.7-7.3s2.4-7.6,4.4-12.9
		s4.7-11.6,8.3-19.1c0.9-2,1.9-3.4,3.2-4.3c1.2-0.9,2.5-1.3,3.9-1.3c0.6,0,1.2,0.1,1.9,0.3c0.6,0.1,1.2,0.4,1.8,0.8
		c0.6,0.4,1,0.9,1.4,1.5c0.3,0.5,0.5,1.2,0.5,2c0,0.5-0.1,1-0.2,1.4c-0.3,0.9-0.7,2-1.4,3.4l-2.6,4.9c-1,1.8-2,3.8-3.1,5.9
		c-1.1,2.1-2.1,4.4-3,6.6c-0.9,2.3-1.7,4.7-2.4,7c-0.7,2.4-1.1,4.7-1.2,6.9c0,1,0.2,1.8,0.6,2.6c0.4,0.8,1.2,1.2,2.2,1.2
		c2.8,0,5.6-0.9,8.2-2.8c2.6-1.9,5-4.2,7.2-7c2.2-2.8,4.2-5.8,6-9s3.2-6.1,4.4-8.7c0.8-1.8,1.6-3.7,2.2-5.7c0.6-2,1.3-3.9,2.1-5.6
		c0.7-1.7,1.6-3.2,2.6-4.3c0.9-1.1,2.1-1.7,3.6-1.7s2.8,0.6,3.7,1.8s1.4,2.6,1.4,4.3c0,0.9-0.3,2.2-0.9,3.8
		c-0.6,1.6-1.3,3.5-2.2,5.6l-2.9,6.8c-1.1,2.4-2,4.8-2.9,7.3c-0.9,2.4-1.7,4.9-2.3,7.2c-0.6,2.4-0.9,4.6-0.9,6.6
		c0,1.9,1,2.8,2.9,2.8c1.4,0,3.1-0.4,5.1-1.4c2-0.9,4.1-2.2,6.3-3.9c2.2-1.7,4.4-3.7,6.6-6c2.2-2.3,4.2-4.7,5.9-7.4l0.7,10.6
		L150.6,94.4z"/>
	<path class="st0" d="M152.6,90.5c-0.5,1.2-0.9,2.6-1.4,4.2c-0.5,1.6-0.7,3-0.7,4.2c0,0.8,0.1,1.4,0.4,1.9c0.3,0.5,0.8,0.7,1.5,0.7
		c0.9,0,2.1-0.3,3.5-1c1.4-0.7,2.9-1.5,4.5-2.6c1.6-1.1,3.3-2.3,5-3.7c1.7-1.4,3.5-2.9,5.2-4.3c1.7-1.5,3.3-3,4.9-4.5s3-2.9,4.2-4.1
		c0.3-0.4,0.8-0.6,1.2-0.8c0.5-0.2,0.9-0.3,1.2-0.3c0.9,0,1.6,0.3,2.2,1.1c0.6,0.7,0.9,1.7,0.9,2.9c0,1.1-0.3,2.3-0.9,3.6
		c-0.6,1.3-1.7,2.6-3.2,3.9c-2.8,3-5.6,5.9-8.5,8.7c-2.8,2.7-5.7,5.2-8.5,7.3c-2.8,2.1-5.6,3.7-8.4,5c-2.8,1.2-5.5,1.8-8.1,1.8
		c-1.8,0-3.3-0.3-4.5-0.9s-2.1-1.4-2.9-2.4c-0.7-1-1.2-2.2-1.5-3.5c-0.3-1.4-0.4-2.8-0.4-4.3c0-2.6,0.3-5.2,1-7.9s1.4-5.2,2.3-7.4
		c1.6-4.1,3.1-8.1,4.7-12.1l4.4-11L170.6,15c0.8-2,1.8-3.4,3.1-4.3c1.4-0.8,2.7-1.2,4.1-1.2c1.4,0,2.6,0.4,3.7,1.3
		c1.1,0.9,1.7,2.3,1.7,4.3c0,0.9-0.2,1.9-0.6,3c-0.4,1-0.8,2.1-1.4,3.3c-1.1,2.4-2.4,5.4-3.9,8.9l-5,11.6c-1.7,4.2-3.5,8.5-5.3,13
		l-5.4,13.2c-1.8,4.3-3.4,8.3-4.9,12.1l-3.9,9.9L152.6,90.5z"/>
	<path class="st0" d="M245.9,76.4c0.6-0.4,1.2-0.8,1.7-1c0.5-0.3,1-0.4,1.5-0.4c1,0,1.7,0.4,2.2,1.3c0.5,0.9,0.8,1.9,0.8,3.2
		c0,1.3-0.3,2.7-0.9,4.1c-0.6,1.4-1.4,2.6-2.6,3.5c-4.7,4.2-8.9,8-12.5,11.4c-3.7,3.4-7.1,6.4-10.4,8.8c-3.3,2.5-6.5,4.4-9.6,5.8
		s-6.4,2.1-10,2.1c-3.3,0-5.9-0.7-7.7-2.2c-1.8-1.4-2.7-3.4-2.7-6v-0.6c0-0.1,0.1-0.4,0.1-0.6c0.2-1.5,0.9-3.3,2.1-5.4
		c1.2-2,2.6-4.1,4.3-6.3s3.5-4.4,5.4-6.6s3.6-4.3,5.3-6.3c1.6-2,2.9-3.8,4-5.5c1.1-1.6,1.6-3,1.6-4c0-0.6-0.2-1.1-0.6-1.5
		c-0.5-0.3-1.2-0.5-2.2-0.5c-1.8,0-3.6,0.5-5.5,1.4c-1.9,0.9-3.8,2.2-5.6,3.7c-1.8,1.6-3.6,3.3-5.3,5.3s-3.3,4.1-4.9,6.2
		c-1.5,2.2-2.9,4.3-4.2,6.5c-1.2,2.2-2.3,4.2-3.2,6l-1.1,2.4l-1.5,3.6l-1.8,4l-1.7,3.9l-1.4,3.3c-0.4,1-0.7,1.6-0.9,2
		c-0.2,0.5-0.5,1.4-1,2.7l-1.8,4.6l-2.1,5.5l-2,5.4l-1.7,4.6c-0.5,1.3-0.8,2.2-0.9,2.6c-0.5,1.3-1,2.6-1.6,3.8s-1.2,2.2-2,3.1
		c-0.8,0.9-1.6,1.6-2.6,2.2c-1,0.5-2.1,0.8-3.3,0.8c-1.6,0-2.9-0.4-3.9-1.1c-1-0.7-1.6-2.2-1.6-4.3c0-1,0.1-2.1,0.4-3.2
		c0.2-1.1,0.6-2.1,1-3.2c0.3-1.1,0.8-2.1,1.2-3.1s0.8-2,1.1-3c2.3-5.2,4.8-10.4,7.2-15.7s4.8-10.4,7.1-15.5
		c2.3-5.1,4.4-10.1,6.3-15.1c1.9-4.9,3.5-9.7,4.8-14.2l1.4-4c0.6-1.7,1.3-3.4,2.1-5s1.7-3.1,2.7-4.3s2.1-1.8,3.2-1.8
		c1.8,0,3.1,0.4,3.9,1.2c0.8,0.9,1.2,2,1.2,3.6c0,0.3,0,0.8-0.1,1.5c-0.1,0.7-0.2,1.4-0.4,2.2l-0.4,2.1c-0.1,0.7-0.3,1.2-0.4,1.5
		c1.6-1.8,3.4-3.5,5.3-5.2c1.9-1.7,3.9-3.3,5.9-4.7s4.1-2.6,6.2-3.5c2.1-0.9,4.2-1.3,6.3-1.3c1.5,0,2.9,0.2,4.4,0.6
		c1.4,0.4,2.7,1,3.8,1.8c1.2,0.8,2.1,1.8,2.8,3s1.1,2.6,1.1,4.2c0,2.1-0.6,4.4-1.6,6.8c-1.1,2.4-2.4,4.9-4.1,7.3
		c-1.6,2.5-3.4,4.8-5.3,7.2c-1.9,2.3-3.6,4.4-5.3,6.3l-4.2,4.9c-1.1,1.3-1.7,2.2-1.7,2.7c0,0.6,0.2,1.1,0.6,1.5s1.1,0.6,2,0.6
		c0.8,0,1.9-0.4,3.3-1.3c1.5-0.9,3.5-2.3,6.1-4.4c2.6-2.1,6-4.8,10-8.3c4-3.5,9-7.8,14.9-13.1L245.9,76.4z"/>
</g>
</svg>
